<svg width="70" height="60" fill="none" xmlns="http://www.w3.org/2000/svg"><path d="M41.822 33.735c-1.796 0-3.258 2.745-3.258 6.136 0 3.39 1.462 6.142 3.258 6.142 1.795 0 3.255-2.75 3.255-6.142.003-3.393-1.457-6.136-3.255-6.136ZM28.186 33.735c-1.8 0-3.259 2.745-3.259 6.136 0 3.39 1.46 6.142 3.26 6.142 1.796 0 3.255-2.75 3.255-6.142 0-3.391-1.459-6.136-3.256-6.136Z" fill="#FF4848"/><path d="M63.48 16.384c.548-1.36 2.347-6.848-.571-14.262 0 0-4.472-1.434-14.6 5.58-4.242-1.183-8.8-1.36-13.307-1.36-4.508 0-9.062.177-13.316 1.364C11.561.686 7.091 2.121 7.091 2.121c-2.915 7.418-1.113 12.902-.566 14.263C3.092 20.144 1 24.946 1 30.831 1 52.99 15.16 58 34.923 58 54.694 58 69 52.99 69 30.831c0-5.885-2.092-10.687-5.526-14.447h.005ZM35.003 53.76c-14.038 0-25.419-.667-25.419-14.45 0-3.293 1.599-6.367 4.34-8.907 4.564-4.239 12.303-1.998 21.08-1.998 8.783 0 16.511-2.24 21.08 1.994 2.743 2.544 4.346 5.609 4.346 8.907 0 13.788-11.388 14.454-25.425 14.454h-.002Z" fill="#FF4848"/></svg>