<svg width="237" height="30" fill="none" xmlns="http://www.w3.org/2000/svg"><path d="M18.501 12.614c.348 0 .643.122.886.364.244.243.365.537.365.884v2.564c0 .324-.121.607-.365.85a1.208 1.208 0 0 1-.886.363H7.072v8.87c0 .324-.116.607-.347.85a1.151 1.151 0 0 1-.869.364h-2.64c-.324 0-.608-.121-.851-.364a1.162 1.162 0 0 1-.365-.85V13.863c0-.347.122-.641.365-.884.243-.242.527-.364.85-.364h15.286Zm1.564-10.603c.324 0 .608.12.85.364.244.242.366.525.366.849v2.53c0 .346-.122.64-.365.883a1.168 1.168 0 0 1-.851.364H3.215c-.323 0-.607-.122-.85-.364A1.201 1.201 0 0 1 2 5.753v-2.53c0-.323.122-.606.365-.848.243-.243.527-.364.85-.364h16.85ZM33.89 22.906c.278.093.498.248.66.468.162.22.243.468.243.745v2.668c0 .37-.15.682-.451.936a1.198 1.198 0 0 1-.765.277.597.597 0 0 1-.243-.035c-2.154-.416-4.006-1.409-5.558-2.98-2.084-2.125-3.127-4.92-3.127-8.386V3.26c0-.347.122-.642.365-.884.243-.243.527-.364.851-.364h2.675c.348 0 .643.12.886.364.243.242.365.537.365.883v13.41c0 2.195.625 3.87 1.876 5.025.648.6 1.39 1.005 2.223 1.213ZM45.876 2.011c.348 0 .643.12.886.364.243.242.365.537.365.883V16.6c0 3.466-1.042 6.26-3.127 8.386-1.551 1.571-3.404 2.564-5.558 2.98A.597.597 0 0 1 38.2 28c-.278 0-.533-.092-.764-.277-.302-.231-.452-.555-.452-.97v-2.669c0-.254.081-.49.243-.71a1.31 1.31 0 0 1 .66-.468c.88-.254 1.621-.658 2.224-1.213 1.25-1.109 1.876-2.784 1.876-5.024V3.259c0-.347.121-.642.364-.884.243-.243.539-.364.886-.364h2.64Zm27.896 0c.325 0 .608.12.852.364.243.242.364.525.364.849V26.44c0 .323-.121.606-.364.849a1.168 1.168 0 0 1-.852.364h-3.057a1.22 1.22 0 0 1-1.007-.486L52.72 3.951A1.222 1.222 0 0 1 52.6 2.67c.104-.208.254-.37.451-.485.197-.116.411-.173.643-.173h3.057c.185 0 .37.04.556.12a.86.86 0 0 1 .417.365l12.193 16.529V3.224c0-.324.116-.607.348-.85a1.15 1.15 0 0 1 .868-.363h2.64ZM56.333 18.817c.324 0 .608.116.851.347.243.23.365.52.365.866v6.41c0 .324-.122.607-.365.85a1.168 1.168 0 0 1-.85.364h-2.641c-.324 0-.608-.122-.851-.364a1.162 1.162 0 0 1-.365-.85v-6.41c0-.347.122-.635.365-.866.243-.231.527-.347.85-.347h2.641Zm46.343 6.93c.139.162.22.359.243.59.023.23-.017.45-.121.658a1.15 1.15 0 0 1-.452.485 1.248 1.248 0 0 1-.643.174h-3.3c-.208 0-.4-.047-.573-.14a1.25 1.25 0 0 1-.434-.38l-8.303-11.92-3.405 3.187v8.04c0 .323-.121.606-.365.849a1.168 1.168 0 0 1-.85.364h-2.64c-.325 0-.609-.122-.852-.364a1.162 1.162 0 0 1-.365-.85v-9.633c0-.37.128-.658.382-.866L95.52 2.357c.231-.23.51-.346.833-.346h3.752c.232 0 .452.069.66.208.209.138.359.323.452.554a1.235 1.235 0 0 1-.278 1.351l-8.13 7.624 9.867 14Zm-20.844-14.9c-.324 0-.608-.115-.851-.346a1.145 1.145 0 0 1-.365-.867v-6.41c0-.324.122-.607.365-.85.243-.242.527-.363.851-.363h2.64c.325 0 .608.12.852.364.243.242.364.525.364.849v6.41c0 .347-.121.636-.365.867a1.197 1.197 0 0 1-.85.346h-2.64Zm33.802-8.56c.278.232.417.544.417.937v2.598c0 .3-.087.56-.261.78-.173.22-.411.364-.712.433a6.988 6.988 0 0 0-3.787 2.114c-1.412 1.479-2.119 3.402-2.119 5.77 0 2.368.707 4.302 2.119 5.804a7.083 7.083 0 0 0 3.787 2.08c.301.068.539.213.712.432.174.22.261.48.261.78v2.599c0 .37-.139.681-.417.935a1.342 1.342 0 0 1-.799.278h-.208c-2.687-.44-4.991-1.652-6.914-3.639-2.408-2.472-3.613-5.55-3.613-9.235 0-3.684 1.205-6.786 3.613-9.304 1.876-1.94 4.181-3.142 6.914-3.604.37-.069.706.012 1.007.243Zm10.908 3.362c2.409 2.518 3.613 5.62 3.613 9.304 0 3.685-1.204 6.763-3.613 9.235-1.922 1.987-4.226 3.2-6.913 3.639h-.208a1.34 1.34 0 0 1-.799-.278 1.219 1.219 0 0 1-.417-.935v-2.599c0-.3.087-.56.26-.78.174-.22.411-.364.712-.433a7.075 7.075 0 0 0 3.787-2.079c1.413-1.502 2.119-3.436 2.119-5.804 0-2.368-.706-4.291-2.119-5.77a6.98 6.98 0 0 0-3.787-2.114 1.227 1.227 0 0 1-.712-.433c-.173-.22-.26-.48-.26-.78V3.223c0-.392.144-.704.434-.935.289-.231.619-.312.99-.243 2.733.462 5.037 1.664 6.913 3.604Zm24.77 9.218c.996.623 1.754 1.386 2.275 2.287.521.9.782 1.906.782 3.015 0 2.61-.996 4.608-2.988 5.994-1.343.97-3.161 1.583-5.454 1.837h-.139c-.324 0-.59-.104-.799-.312-.278-.254-.417-.554-.417-.9v-2.496c0-.3.104-.566.313-.797.208-.23.463-.37.764-.416 1.089-.115 1.934-.37 2.536-.762.463-.277.776-.635.938-1.074.093-.254.139-.578.139-.97 0-.255-.046-.474-.139-.659-.092-.185-.255-.358-.486-.52-.672-.462-1.54-.854-2.606-1.178l-.556-.173a53.627 53.627 0 0 0-3.196-.797 45.052 45.052 0 0 1-1.007-.243l-.382-.104a20.574 20.574 0 0 1-2.64-.866c-1.367-.578-2.49-1.305-3.37-2.183-1.019-1.017-1.529-2.356-1.529-4.02 0-2.287.88-4.146 2.64-5.579 1.205-1.016 2.895-1.663 5.073-1.94.37-.047.689.057.955.312.266.254.399.554.399.9v2.495c0 .3-.092.566-.278.797a1.038 1.038 0 0 1-.712.399 5.085 5.085 0 0 0-.886.19c-.671.255-1.146.503-1.424.746-.278.242-.475.49-.59.745a3.922 3.922 0 0 0-.174 1.109c0 .184.104.38.312.589.325.323.799.612 1.425.866.278.115.764.289 1.459.52l4.342 1.074.209.07c1.088.3 1.876.53 2.362.692 1.089.37 2.038.82 2.849 1.352Zm-5.802-7.832a1.217 1.217 0 0 1-.938-1.213v-2.53c0-.369.151-.68.452-.935a.84.84 0 0 1 .451-.225c.186-.035.359-.04.522-.017 2.038.323 3.694 1.016 4.967 2.079 1.737 1.432 2.664 3.257 2.78 5.475.023.323-.087.618-.33.883a1.159 1.159 0 0 1-.886.399h-2.71c-.301 0-.567-.104-.799-.312a1.104 1.104 0 0 1-.382-.762c-.093-.6-.29-1.098-.591-1.49-.486-.578-1.239-1.017-2.258-1.317-.069 0-.116-.012-.139-.035h-.139Zm-4.064 15.906c.278.046.509.185.694.416.186.23.278.485.278.762v2.564c0 .37-.139.682-.417.936a1.242 1.242 0 0 1-.799.277h-.173c-2.154-.323-3.926-1.028-5.315-2.114-1.807-1.432-2.826-3.43-3.058-5.995-.046-.37.058-.687.313-.953.255-.265.556-.398.903-.398h2.745c.324 0 .602.11.834.33.231.219.359.49.382.814.069 1.155.637 2.044 1.702 2.668.486.277 1.123.508 1.911.693Zm18.169-12.06a1.17 1.17 0 0 1-.852-.363 1.162 1.162 0 0 1-.364-.85V3.225c0-.324.121-.607.364-.85a1.17 1.17 0 0 1 .852-.363h2.64c.347 0 .637.12.868.364.232.242.348.525.348.849v6.445c0 .323-.116.606-.348.849a1.15 1.15 0 0 1-.868.364h-2.64Zm18.863-8.87c.325 0 .608.12.851.364.244.242.365.525.365.849V26.51c0 .323-.121.606-.365.849a1.166 1.166 0 0 1-.851.364h-2.64a1.15 1.15 0 0 1-.868-.364 1.19 1.19 0 0 1-.348-.85v-9.147h-11.151v9.148c0 .323-.116.606-.348.849a1.15 1.15 0 0 1-.868.364h-2.64a1.17 1.17 0 0 1-.852-.364 1.162 1.162 0 0 1-.364-.85V13.55c0-.322.121-.605.364-.848a1.17 1.17 0 0 1 .852-.364h15.007V3.223c0-.323.116-.606.348-.848a1.15 1.15 0 0 1 .868-.364h2.64Zm16.919.277c.278.23.416.543.416.936v2.598c0 .3-.086.56-.26.78-.174.22-.411.364-.712.433a6.984 6.984 0 0 0-3.787 2.114c-1.413 1.479-2.119 3.402-2.119 5.77 0 2.368.706 4.302 2.119 5.804a7.079 7.079 0 0 0 3.787 2.08c.301.068.538.213.712.432.174.22.26.48.26.78v2.599c0 .37-.138.681-.416.935a1.344 1.344 0 0 1-.799.278h-.209c-2.686-.44-4.991-1.652-6.913-3.639-2.409-2.472-3.613-5.55-3.613-9.235 0-3.684 1.204-6.786 3.613-9.304 1.876-1.94 4.18-3.142 6.913-3.604a1.22 1.22 0 0 1 1.008.243Zm10.908 3.361c2.409 2.518 3.613 5.62 3.613 9.304 0 3.685-1.204 6.763-3.613 9.235-1.922 1.987-4.227 3.2-6.913 3.639h-.209c-.278 0-.544-.093-.799-.278a1.219 1.219 0 0 1-.417-.935v-2.599c0-.3.087-.56.261-.78.174-.22.411-.364.712-.433a7.079 7.079 0 0 0 3.787-2.079c1.412-1.502 2.119-3.436 2.119-5.804 0-2.368-.707-4.291-2.119-5.77a6.984 6.984 0 0 0-3.787-2.114 1.227 1.227 0 0 1-.712-.433 1.217 1.217 0 0 1-.261-.78V3.223c0-.392.145-.704.435-.935.289-.231.619-.312.99-.243 2.733.462 5.037 1.664 6.913 3.604Zm19.489-3.638c2.756 0 4.979.79 6.67 2.373 1.691 1.583 2.536 3.69 2.536 6.324s-.834 4.736-2.501 6.307c-1.668 1.571-3.903 2.357-6.705 2.357h-6.635v7.069c0 .323-.122.606-.365.849a1.168 1.168 0 0 1-.851.364h-2.64a1.17 1.17 0 0 1-.852-.364 1.162 1.162 0 0 1-.364-.85V15.699c0-.323.121-.606.364-.849a1.17 1.17 0 0 1 .852-.364h10.283c1.551 0 2.663-.334 3.335-1.004.671-.601 1.007-1.514 1.007-2.738s-.347-2.166-1.042-2.824c-.695-.658-1.795-.988-3.3-.988h-10.283a1.17 1.17 0 0 1-.852-.364 1.162 1.162 0 0 1-.364-.849V3.224c0-.324.121-.607.364-.85a1.17 1.17 0 0 1 .852-.363h10.491Z" fill="#fff"/></svg>